<svg width="165" height="27" viewBox="0 0 165 27" fill="none" xmlns="http://www.w3.org/2000/svg">
<path d="M0.580017 21L8.78702 0.613007H12.006L20.184 21H15.979L9.65702 4.26701H11.107L4.69802 21H0.580017ZM4.93002 17.201V13.895H15.892V17.201H4.93002Z" fill="black"/>
<path d="M22.5919 21V0.613007H26.5359V21H22.5919Z" fill="black"/>
<path d="M43.4509 21L33.3008 10.502L43.2479 0.874006H46.7859L36.0559 11.198V9.69001L47.0759 21H43.4509ZM31.0099 21V0.874006H33.7359V21H31.0099Z" fill="black"/>
<path d="M54.6806 21.29C53.3273 21.29 52.1093 20.971 51.0266 20.333C49.944 19.695 49.0836 18.8347 48.4456 17.752C47.8076 16.65 47.4886 15.4223 47.4886 14.069C47.4886 12.735 47.8076 11.5363 48.4456 10.473C49.0836 9.39034 49.944 8.53001 51.0266 7.89201C52.1093 7.25401 53.3273 6.93501 54.6806 6.93501C56.0146 6.93501 57.223 7.25401 58.3056 7.89201C59.4076 8.51067 60.2776 9.36134 60.9156 10.444C61.5536 11.5267 61.8727 12.735 61.8727 14.069C61.8727 15.4223 61.5536 16.65 60.9156 17.752C60.2776 18.8347 59.4076 19.695 58.3056 20.333C57.223 20.971 56.0146 21.29 54.6806 21.29ZM54.6806 18.767C55.5506 18.767 56.324 18.564 57.0006 18.158C57.6773 17.752 58.209 17.201 58.5956 16.505C58.9823 15.7897 59.1756 14.9777 59.1756 14.069C59.1756 13.1797 58.9727 12.387 58.5667 11.691C58.18 10.995 57.6483 10.4537 56.9716 10.067C56.3143 9.66101 55.5506 9.458 54.6806 9.458C53.8106 9.458 53.0373 9.66101 52.3606 10.067C51.684 10.4537 51.1523 10.995 50.7656 11.691C50.379 12.387 50.1856 13.1797 50.1856 14.069C50.1856 14.9777 50.379 15.7897 50.7656 16.505C51.1523 17.201 51.684 17.752 52.3606 18.158C53.0373 18.564 53.8106 18.767 54.6806 18.767Z" fill="black"/>
<path d="M74.5574 21V12.967C74.5574 11.923 74.2288 11.0627 73.5714 10.386C72.9141 9.70934 72.0634 9.37101 71.0194 9.37101C70.3234 9.37101 69.7048 9.52567 69.1634 9.83501C68.6221 10.1443 68.1968 10.5697 67.8874 11.111C67.5781 11.6523 67.4234 12.271 67.4234 12.967L66.3504 12.358C66.3504 11.314 66.5824 10.386 67.0464 9.57401C67.5104 8.76201 68.1581 8.12401 68.9894 7.66001C69.8208 7.17667 70.7584 6.93501 71.8024 6.93501C72.8464 6.93501 73.7648 7.19601 74.5574 7.71801C75.3694 8.24001 76.0074 8.92634 76.4714 9.77701C76.9354 10.6083 77.1674 11.4977 77.1674 12.445V21H74.5574ZM64.8134 21V7.22501H67.4234V21H64.8134Z" fill="black"/>
<path d="M86.9941 21.29C85.6408 21.29 84.4131 20.971 83.3111 20.333C82.2285 19.695 81.3681 18.8347 80.7301 17.752C80.1115 16.65 79.8021 15.432 79.8021 14.098C79.8021 12.7447 80.1115 11.5267 80.7301 10.444C81.3681 9.36134 82.2285 8.51067 83.3111 7.89201C84.4131 7.25401 85.6408 6.93501 86.9941 6.93501C88.0575 6.93501 89.0435 7.13801 89.9521 7.54401C90.8608 7.93067 91.6438 8.50101 92.3011 9.25501L90.5611 10.995C90.1358 10.4923 89.6138 10.1153 88.9951 9.86401C88.3958 9.59334 87.7288 9.458 86.9941 9.458C86.1241 9.458 85.3508 9.66101 84.6741 10.067C83.9975 10.4537 83.4658 10.995 83.0791 11.691C82.6925 12.387 82.4991 13.1893 82.4991 14.098C82.4991 15.0067 82.6925 15.809 83.0791 16.505C83.4658 17.201 83.9975 17.752 84.6741 18.158C85.3508 18.564 86.1241 18.767 86.9941 18.767C87.7288 18.767 88.3958 18.6413 88.9951 18.39C89.6138 18.1193 90.1455 17.7327 90.5901 17.23L92.3011 18.97C91.6631 19.7047 90.8801 20.275 89.9521 20.681C89.0435 21.087 88.0575 21.29 86.9941 21.29Z" fill="black"/>
<path d="M94.9186 21V7.22501H97.5286V21H94.9186ZM96.2236 4.47001C95.7403 4.47001 95.3439 4.31534 95.0346 4.00601C94.7253 3.67734 94.5706 3.27134 94.5706 2.78801C94.5706 2.32401 94.7253 1.93734 95.0346 1.62801C95.3439 1.29934 95.7403 1.135 96.2236 1.135C96.7069 1.135 97.1033 1.29934 97.4126 1.62801C97.7219 1.93734 97.8766 2.32401 97.8766 2.78801C97.8766 3.27134 97.7219 3.67734 97.4126 4.00601C97.1033 4.31534 96.7069 4.47001 96.2236 4.47001Z" fill="black"/>
<path d="M108.625 21.29C107.581 21.29 106.634 21.0773 105.783 20.652C104.952 20.2073 104.285 19.5983 103.782 18.825C103.279 18.0517 102.999 17.172 102.941 16.186V12.039C102.999 11.0337 103.279 10.154 103.782 9.40001C104.304 8.62667 104.981 8.02734 105.812 7.60201C106.663 7.15734 107.6 6.93501 108.625 6.93501C109.882 6.93501 111.013 7.25401 112.018 7.89201C113.043 8.53001 113.845 9.39034 114.425 10.473C115.005 11.5557 115.295 12.7737 115.295 14.127C115.295 15.4803 115.005 16.6983 114.425 17.781C113.845 18.8637 113.043 19.724 112.018 20.362C111.013 20.9807 109.882 21.29 108.625 21.29ZM108.19 18.825C109.06 18.825 109.824 18.622 110.481 18.216C111.138 17.81 111.66 17.259 112.047 16.563C112.434 15.8477 112.627 15.026 112.627 14.098C112.627 13.1893 112.434 12.3773 112.047 11.662C111.66 10.9467 111.138 10.3957 110.481 10.009C109.824 9.60301 109.07 9.40001 108.219 9.40001C107.349 9.40001 106.585 9.60301 105.928 10.009C105.271 10.3957 104.758 10.9467 104.391 11.662C104.024 12.3773 103.84 13.199 103.84 14.127C103.84 15.0357 104.014 15.8477 104.362 16.563C104.729 17.259 105.242 17.81 105.899 18.216C106.576 18.622 107.339 18.825 108.19 18.825ZM101.375 26.771V7.22501H103.985V10.85L103.492 14.185L103.985 17.549V26.771H101.375Z" fill="black"/>
<path d="M118.283 21V7.22501H120.893V21H118.283ZM119.588 4.47001C119.105 4.47001 118.708 4.31534 118.399 4.00601C118.09 3.67734 117.935 3.27134 117.935 2.78801C117.935 2.32401 118.09 1.93734 118.399 1.62801C118.708 1.29934 119.105 1.135 119.588 1.135C120.071 1.135 120.468 1.29934 120.777 1.62801C121.086 1.93734 121.241 2.32401 121.241 2.78801C121.241 3.27134 121.086 3.67734 120.777 4.00601C120.468 4.31534 120.071 4.47001 119.588 4.47001Z" fill="black"/>
<path d="M131.119 21.29C129.747 21.29 128.509 20.9807 127.407 20.362C126.305 19.724 125.435 18.8637 124.797 17.781C124.159 16.6983 123.84 15.4707 123.84 14.098C123.84 12.7447 124.15 11.5267 124.768 10.444C125.406 9.36134 126.257 8.51067 127.32 7.89201C128.403 7.25401 129.611 6.93501 130.945 6.93501C132.221 6.93501 133.343 7.22501 134.309 7.80501C135.295 8.38501 136.059 9.18734 136.6 10.212C137.161 11.2367 137.441 12.3967 137.441 13.692C137.441 13.8853 137.432 14.098 137.412 14.33C137.393 14.5427 137.354 14.794 137.296 15.084H125.667V12.909H135.904L134.947 13.75C134.947 12.822 134.783 12.039 134.454 11.401C134.126 10.7437 133.662 10.241 133.062 9.89301C132.463 9.52567 131.738 9.34201 130.887 9.34201C129.998 9.34201 129.215 9.53534 128.538 9.92201C127.862 10.3087 127.34 10.85 126.972 11.546C126.605 12.242 126.421 13.0637 126.421 14.011C126.421 14.9777 126.615 15.8283 127.001 16.563C127.388 17.2783 127.939 17.839 128.654 18.245C129.37 18.6317 130.191 18.825 131.119 18.825C131.893 18.825 132.598 18.6897 133.236 18.419C133.894 18.1483 134.454 17.7423 134.918 17.201L136.6 18.912C135.943 19.6853 135.131 20.275 134.164 20.681C133.217 21.087 132.202 21.29 131.119 21.29Z" fill="black"/>
<path d="M150.031 21V12.967C150.031 11.923 149.702 11.0627 149.045 10.386C148.388 9.70934 147.537 9.37101 146.493 9.37101C145.797 9.37101 145.178 9.52567 144.637 9.83501C144.096 10.1443 143.67 10.5697 143.361 11.111C143.052 11.6523 142.897 12.271 142.897 12.967L141.824 12.358C141.824 11.314 142.056 10.386 142.52 9.57401C142.984 8.76201 143.632 8.12401 144.463 7.66001C145.294 7.17667 146.232 6.93501 147.276 6.93501C148.32 6.93501 149.238 7.19601 150.031 7.71801C150.843 8.24001 151.481 8.92634 151.945 9.77701C152.409 10.6083 152.641 11.4977 152.641 12.445V21H150.031ZM140.287 21V7.22501H142.897V21H140.287Z" fill="black"/>
<path d="M158.122 21V1.45401H160.732V21H158.122ZM154.729 9.60301V7.22501H164.125V9.60301H154.729Z" fill="black"/>
</svg>
